<mxfile host="app.diagrams.net" agent="Mozilla/5.0 (Windows NT 10.0; Win64; x64; rv:133.0) Gecko/20100101 Firefox/133.0" version="25.0.3" pages="2">
  <diagram name="Class Diagram" id="j_ABxriS_8S6ce2Acyq8">
    <mxGraphModel dx="1354" dy="709" grid="1" gridSize="10" guides="1" tooltips="1" connect="1" arrows="1" fold="1" page="1" pageScale="1" pageWidth="1169" pageHeight="827" math="0" shadow="0">
      <root>
        <mxCell id="0" />
        <mxCell id="1" parent="0" />
        <mxCell id="fHbNj_VpwOHKkfFw5XxW-12" style="edgeStyle=orthogonalEdgeStyle;rounded=0;orthogonalLoop=1;jettySize=auto;html=1;entryX=0.5;entryY=1;entryDx=0;entryDy=0;endArrow=none;endFill=0;" parent="1" source="fHbNj_VpwOHKkfFw5XxW-1" target="fHbNj_VpwOHKkfFw5XxW-3" edge="1">
          <mxGeometry relative="1" as="geometry" />
        </mxCell>
        <mxCell id="fHbNj_VpwOHKkfFw5XxW-13" value="*" style="edgeLabel;html=1;align=center;verticalAlign=middle;resizable=0;points=[];" parent="fHbNj_VpwOHKkfFw5XxW-12" connectable="0" vertex="1">
          <mxGeometry x="-0.5721" y="1" relative="1" as="geometry">
            <mxPoint x="-10" y="-1" as="offset" />
          </mxGeometry>
        </mxCell>
        <mxCell id="fHbNj_VpwOHKkfFw5XxW-14" value="1" style="edgeLabel;html=1;align=center;verticalAlign=middle;resizable=0;points=[];" parent="fHbNj_VpwOHKkfFw5XxW-12" connectable="0" vertex="1">
          <mxGeometry x="0.5562" y="-1" relative="1" as="geometry">
            <mxPoint x="-12" y="-1" as="offset" />
          </mxGeometry>
        </mxCell>
        <mxCell id="fHbNj_VpwOHKkfFw5XxW-15" value="is linked to" style="edgeLabel;html=1;align=center;verticalAlign=middle;resizable=0;points=[];" parent="fHbNj_VpwOHKkfFw5XxW-12" connectable="0" vertex="1">
          <mxGeometry x="-0.0598" y="1" relative="1" as="geometry">
            <mxPoint x="30" as="offset" />
          </mxGeometry>
        </mxCell>
        <mxCell id="fHbNj_VpwOHKkfFw5XxW-1" value="&lt;font style=&quot;font-size: 14px;&quot;&gt;File&lt;/font&gt;" style="rounded=1;whiteSpace=wrap;html=1;" parent="1" vertex="1">
          <mxGeometry x="243" y="679" width="80" height="30" as="geometry" />
        </mxCell>
        <mxCell id="fHbNj_VpwOHKkfFw5XxW-16" style="edgeStyle=orthogonalEdgeStyle;rounded=0;orthogonalLoop=1;jettySize=auto;html=1;entryX=0.5;entryY=1;entryDx=0;entryDy=0;endArrow=none;endFill=0;" parent="1" source="fHbNj_VpwOHKkfFw5XxW-3" target="fHbNj_VpwOHKkfFw5XxW-4" edge="1">
          <mxGeometry relative="1" as="geometry" />
        </mxCell>
        <mxCell id="fHbNj_VpwOHKkfFw5XxW-17" value="0..*" style="edgeLabel;html=1;align=center;verticalAlign=middle;resizable=0;points=[];" parent="fHbNj_VpwOHKkfFw5XxW-16" connectable="0" vertex="1">
          <mxGeometry x="-0.7486" y="1" relative="1" as="geometry">
            <mxPoint x="11" y="-7" as="offset" />
          </mxGeometry>
        </mxCell>
        <mxCell id="fHbNj_VpwOHKkfFw5XxW-18" value="1" style="edgeLabel;html=1;align=center;verticalAlign=middle;resizable=0;points=[];" parent="fHbNj_VpwOHKkfFw5XxW-16" connectable="0" vertex="1">
          <mxGeometry x="0.669" y="-1" relative="1" as="geometry">
            <mxPoint x="9" y="-8" as="offset" />
          </mxGeometry>
        </mxCell>
        <mxCell id="fHbNj_VpwOHKkfFw5XxW-19" value="is written on" style="edgeLabel;html=1;align=center;verticalAlign=middle;resizable=0;points=[];" parent="fHbNj_VpwOHKkfFw5XxW-16" connectable="0" vertex="1">
          <mxGeometry x="-0.1056" y="-2" relative="1" as="geometry">
            <mxPoint x="30" y="-11" as="offset" />
          </mxGeometry>
        </mxCell>
        <mxCell id="fHbNj_VpwOHKkfFw5XxW-85" style="edgeStyle=orthogonalEdgeStyle;rounded=0;orthogonalLoop=1;jettySize=auto;html=1;entryX=1;entryY=0.5;entryDx=0;entryDy=0;" parent="1" source="fHbNj_VpwOHKkfFw5XxW-3" target="fHbNj_VpwOHKkfFw5XxW-11" edge="1">
          <mxGeometry relative="1" as="geometry">
            <Array as="points">
              <mxPoint x="423" y="624" />
              <mxPoint x="423" y="699" />
              <mxPoint x="823" y="699" />
              <mxPoint x="823" y="544" />
            </Array>
          </mxGeometry>
        </mxCell>
        <mxCell id="fHbNj_VpwOHKkfFw5XxW-86" value="0..*" style="edgeLabel;html=1;align=center;verticalAlign=middle;resizable=0;points=[];" parent="fHbNj_VpwOHKkfFw5XxW-85" connectable="0" vertex="1">
          <mxGeometry x="-0.9112" y="-2" relative="1" as="geometry">
            <mxPoint x="-23" y="6" as="offset" />
          </mxGeometry>
        </mxCell>
        <mxCell id="fHbNj_VpwOHKkfFw5XxW-87" value="0..*" style="edgeLabel;html=1;align=center;verticalAlign=middle;resizable=0;points=[];" parent="fHbNj_VpwOHKkfFw5XxW-85" connectable="0" vertex="1">
          <mxGeometry x="0.904" relative="1" as="geometry">
            <mxPoint x="11" y="-9" as="offset" />
          </mxGeometry>
        </mxCell>
        <mxCell id="fHbNj_VpwOHKkfFw5XxW-88" value="is written by" style="edgeLabel;html=1;align=center;verticalAlign=middle;resizable=0;points=[];" parent="fHbNj_VpwOHKkfFw5XxW-85" connectable="0" vertex="1">
          <mxGeometry x="-0.0408" relative="1" as="geometry">
            <mxPoint y="8" as="offset" />
          </mxGeometry>
        </mxCell>
        <mxCell id="fHbNj_VpwOHKkfFw5XxW-3" value="Note" style="rounded=1;whiteSpace=wrap;html=1;" parent="1" vertex="1">
          <mxGeometry x="243" y="609" width="80" height="30" as="geometry" />
        </mxCell>
        <mxCell id="fHbNj_VpwOHKkfFw5XxW-20" style="edgeStyle=orthogonalEdgeStyle;rounded=0;orthogonalLoop=1;jettySize=auto;html=1;entryX=0;entryY=0.5;entryDx=0;entryDy=0;endArrow=none;endFill=0;" parent="1" source="fHbNj_VpwOHKkfFw5XxW-4" target="fHbNj_VpwOHKkfFw5XxW-5" edge="1">
          <mxGeometry relative="1" as="geometry" />
        </mxCell>
        <mxCell id="fHbNj_VpwOHKkfFw5XxW-21" value="1" style="edgeLabel;html=1;align=center;verticalAlign=middle;resizable=0;points=[];" parent="fHbNj_VpwOHKkfFw5XxW-20" connectable="0" vertex="1">
          <mxGeometry x="-0.6447" y="-3" relative="1" as="geometry">
            <mxPoint y="-11" as="offset" />
          </mxGeometry>
        </mxCell>
        <mxCell id="fHbNj_VpwOHKkfFw5XxW-22" value="0..*" style="edgeLabel;html=1;align=center;verticalAlign=middle;resizable=0;points=[];" parent="fHbNj_VpwOHKkfFw5XxW-20" connectable="0" vertex="1">
          <mxGeometry x="0.6472" y="-1" relative="1" as="geometry">
            <mxPoint x="1" y="-9" as="offset" />
          </mxGeometry>
        </mxCell>
        <mxCell id="fHbNj_VpwOHKkfFw5XxW-23" value="has" style="edgeLabel;html=1;align=center;verticalAlign=middle;resizable=0;points=[];" parent="fHbNj_VpwOHKkfFw5XxW-20" connectable="0" vertex="1">
          <mxGeometry x="-0.0733" y="-1" relative="1" as="geometry">
            <mxPoint y="-10" as="offset" />
          </mxGeometry>
        </mxCell>
        <mxCell id="fHbNj_VpwOHKkfFw5XxW-69" style="edgeStyle=orthogonalEdgeStyle;rounded=0;orthogonalLoop=1;jettySize=auto;html=1;entryX=0;entryY=0.5;entryDx=0;entryDy=0;exitX=0.5;exitY=0;exitDx=0;exitDy=0;endArrow=none;endFill=0;" parent="1" source="fHbNj_VpwOHKkfFw5XxW-4" target="fHbNj_VpwOHKkfFw5XxW-60" edge="1">
          <mxGeometry relative="1" as="geometry" />
        </mxCell>
        <mxCell id="fHbNj_VpwOHKkfFw5XxW-70" value="1" style="edgeLabel;html=1;align=center;verticalAlign=middle;resizable=0;points=[];" parent="fHbNj_VpwOHKkfFw5XxW-69" connectable="0" vertex="1">
          <mxGeometry x="-0.927" relative="1" as="geometry">
            <mxPoint x="5" y="5" as="offset" />
          </mxGeometry>
        </mxCell>
        <mxCell id="fHbNj_VpwOHKkfFw5XxW-71" value="*" style="edgeLabel;html=1;align=center;verticalAlign=middle;resizable=0;points=[];" parent="fHbNj_VpwOHKkfFw5XxW-69" connectable="0" vertex="1">
          <mxGeometry x="0.9083" relative="1" as="geometry">
            <mxPoint x="2" y="8" as="offset" />
          </mxGeometry>
        </mxCell>
        <mxCell id="fHbNj_VpwOHKkfFw5XxW-72" value="has" style="edgeLabel;html=1;align=center;verticalAlign=middle;resizable=0;points=[];" parent="fHbNj_VpwOHKkfFw5XxW-69" connectable="0" vertex="1">
          <mxGeometry x="-0.1793" y="-2" relative="1" as="geometry">
            <mxPoint x="-14" as="offset" />
          </mxGeometry>
        </mxCell>
        <mxCell id="fHbNj_VpwOHKkfFw5XxW-4" value="Machine" style="rounded=1;whiteSpace=wrap;html=1;" parent="1" vertex="1">
          <mxGeometry x="243" y="489" width="80" height="30" as="geometry" />
        </mxCell>
        <mxCell id="fHbNj_VpwOHKkfFw5XxW-24" style="edgeStyle=orthogonalEdgeStyle;rounded=0;orthogonalLoop=1;jettySize=auto;html=1;entryX=0;entryY=0.5;entryDx=0;entryDy=0;exitX=0.5;exitY=0;exitDx=0;exitDy=0;startArrow=diamondThin;startFill=1;endArrow=none;endFill=0;" parent="1" source="fHbNj_VpwOHKkfFw5XxW-5" target="fHbNj_VpwOHKkfFw5XxW-6" edge="1">
          <mxGeometry relative="1" as="geometry" />
        </mxCell>
        <mxCell id="fHbNj_VpwOHKkfFw5XxW-25" value="1..*" style="edgeLabel;html=1;align=center;verticalAlign=middle;resizable=0;points=[];" parent="fHbNj_VpwOHKkfFw5XxW-24" connectable="0" vertex="1">
          <mxGeometry x="-0.7477" y="3" relative="1" as="geometry">
            <mxPoint x="15" y="1" as="offset" />
          </mxGeometry>
        </mxCell>
        <mxCell id="fHbNj_VpwOHKkfFw5XxW-26" value="1" style="edgeLabel;html=1;align=center;verticalAlign=middle;resizable=0;points=[];" parent="fHbNj_VpwOHKkfFw5XxW-24" connectable="0" vertex="1">
          <mxGeometry x="0.6853" relative="1" as="geometry">
            <mxPoint y="8" as="offset" />
          </mxGeometry>
        </mxCell>
        <mxCell id="fHbNj_VpwOHKkfFw5XxW-27" value="contains" style="edgeLabel;html=1;align=center;verticalAlign=middle;resizable=0;points=[];" parent="fHbNj_VpwOHKkfFw5XxW-24" connectable="0" vertex="1">
          <mxGeometry x="-0.2311" y="3" relative="1" as="geometry">
            <mxPoint x="25" y="-2" as="offset" />
          </mxGeometry>
        </mxCell>
        <mxCell id="fHbNj_VpwOHKkfFw5XxW-28" style="edgeStyle=orthogonalEdgeStyle;rounded=0;orthogonalLoop=1;jettySize=auto;html=1;exitX=0.5;exitY=1;exitDx=0;exitDy=0;entryX=0;entryY=0.5;entryDx=0;entryDy=0;" parent="1" source="fHbNj_VpwOHKkfFw5XxW-5" target="fHbNj_VpwOHKkfFw5XxW-7" edge="1">
          <mxGeometry relative="1" as="geometry" />
        </mxCell>
        <mxCell id="fHbNj_VpwOHKkfFw5XxW-29" value="1..*" style="edgeLabel;html=1;align=center;verticalAlign=middle;resizable=0;points=[];" parent="fHbNj_VpwOHKkfFw5XxW-28" connectable="0" vertex="1">
          <mxGeometry x="0.6208" relative="1" as="geometry">
            <mxPoint x="2" y="-9" as="offset" />
          </mxGeometry>
        </mxCell>
        <mxCell id="fHbNj_VpwOHKkfFw5XxW-30" value="1" style="edgeLabel;html=1;align=center;verticalAlign=middle;resizable=0;points=[];" parent="fHbNj_VpwOHKkfFw5XxW-28" connectable="0" vertex="1">
          <mxGeometry x="-0.8576" relative="1" as="geometry">
            <mxPoint x="7" as="offset" />
          </mxGeometry>
        </mxCell>
        <mxCell id="fHbNj_VpwOHKkfFw5XxW-64" value="has" style="edgeLabel;html=1;align=center;verticalAlign=middle;resizable=0;points=[];" parent="fHbNj_VpwOHKkfFw5XxW-28" connectable="0" vertex="1">
          <mxGeometry x="-0.2879" y="-3" relative="1" as="geometry">
            <mxPoint x="15" y="3" as="offset" />
          </mxGeometry>
        </mxCell>
        <mxCell id="fHbNj_VpwOHKkfFw5XxW-5" value="Alarm" style="rounded=1;whiteSpace=wrap;html=1;" parent="1" vertex="1">
          <mxGeometry x="393" y="489" width="80" height="30" as="geometry" />
        </mxCell>
        <mxCell id="fHbNj_VpwOHKkfFw5XxW-38" style="edgeStyle=orthogonalEdgeStyle;rounded=0;orthogonalLoop=1;jettySize=auto;html=1;entryX=0;entryY=0.5;entryDx=0;entryDy=0;endArrow=none;endFill=0;" parent="1" source="fHbNj_VpwOHKkfFw5XxW-6" target="fHbNj_VpwOHKkfFw5XxW-37" edge="1">
          <mxGeometry relative="1" as="geometry" />
        </mxCell>
        <mxCell id="fHbNj_VpwOHKkfFw5XxW-39" value="1" style="edgeLabel;html=1;align=center;verticalAlign=middle;resizable=0;points=[];" parent="fHbNj_VpwOHKkfFw5XxW-38" connectable="0" vertex="1">
          <mxGeometry x="-0.8182" y="-2" relative="1" as="geometry">
            <mxPoint y="6" as="offset" />
          </mxGeometry>
        </mxCell>
        <mxCell id="fHbNj_VpwOHKkfFw5XxW-40" value="1..*" style="edgeLabel;html=1;align=center;verticalAlign=middle;resizable=0;points=[];" parent="fHbNj_VpwOHKkfFw5XxW-38" connectable="0" vertex="1">
          <mxGeometry x="0.6364" y="-2" relative="1" as="geometry">
            <mxPoint x="1" y="6" as="offset" />
          </mxGeometry>
        </mxCell>
        <mxCell id="fHbNj_VpwOHKkfFw5XxW-61" value="has" style="edgeLabel;html=1;align=center;verticalAlign=middle;resizable=0;points=[];" parent="fHbNj_VpwOHKkfFw5XxW-38" connectable="0" vertex="1">
          <mxGeometry x="-0.1176" y="1" relative="1" as="geometry">
            <mxPoint x="2" y="8" as="offset" />
          </mxGeometry>
        </mxCell>
        <mxCell id="fHbNj_VpwOHKkfFw5XxW-46" style="edgeStyle=orthogonalEdgeStyle;rounded=0;orthogonalLoop=1;jettySize=auto;html=1;entryX=0.5;entryY=1;entryDx=0;entryDy=0;endArrow=none;endFill=0;" parent="1" source="fHbNj_VpwOHKkfFw5XxW-6" target="fHbNj_VpwOHKkfFw5XxW-43" edge="1">
          <mxGeometry relative="1" as="geometry" />
        </mxCell>
        <mxCell id="fHbNj_VpwOHKkfFw5XxW-47" value="1" style="edgeLabel;html=1;align=center;verticalAlign=middle;resizable=0;points=[];" parent="fHbNj_VpwOHKkfFw5XxW-46" connectable="0" vertex="1">
          <mxGeometry x="-0.7126" y="-1" relative="1" as="geometry">
            <mxPoint x="4" as="offset" />
          </mxGeometry>
        </mxCell>
        <mxCell id="fHbNj_VpwOHKkfFw5XxW-48" value="1..*" style="edgeLabel;html=1;align=center;verticalAlign=middle;resizable=0;points=[];" parent="fHbNj_VpwOHKkfFw5XxW-46" connectable="0" vertex="1">
          <mxGeometry x="0.6559" y="-1" relative="1" as="geometry">
            <mxPoint x="9" y="-2" as="offset" />
          </mxGeometry>
        </mxCell>
        <mxCell id="fHbNj_VpwOHKkfFw5XxW-51" value="composed of" style="edgeLabel;html=1;align=center;verticalAlign=middle;resizable=0;points=[];" parent="fHbNj_VpwOHKkfFw5XxW-46" connectable="0" vertex="1">
          <mxGeometry x="0.1281" relative="1" as="geometry">
            <mxPoint x="33" as="offset" />
          </mxGeometry>
        </mxCell>
        <mxCell id="fHbNj_VpwOHKkfFw5XxW-6" value="Normgroup" style="rounded=1;whiteSpace=wrap;html=1;" parent="1" vertex="1">
          <mxGeometry x="523" y="402" width="80" height="30" as="geometry" />
        </mxCell>
        <mxCell id="fHbNj_VpwOHKkfFw5XxW-31" style="edgeStyle=orthogonalEdgeStyle;rounded=0;orthogonalLoop=1;jettySize=auto;html=1;entryX=0;entryY=0.5;entryDx=0;entryDy=0;exitX=0.5;exitY=1;exitDx=0;exitDy=0;" parent="1" source="fHbNj_VpwOHKkfFw5XxW-7" target="fHbNj_VpwOHKkfFw5XxW-8" edge="1">
          <mxGeometry relative="1" as="geometry" />
        </mxCell>
        <mxCell id="fHbNj_VpwOHKkfFw5XxW-32" value="1..*" style="edgeLabel;html=1;align=center;verticalAlign=middle;resizable=0;points=[];" parent="fHbNj_VpwOHKkfFw5XxW-31" connectable="0" vertex="1">
          <mxGeometry x="-0.8912" relative="1" as="geometry">
            <mxPoint x="-11" as="offset" />
          </mxGeometry>
        </mxCell>
        <mxCell id="fHbNj_VpwOHKkfFw5XxW-33" value="1" style="edgeLabel;html=1;align=center;verticalAlign=middle;resizable=0;points=[];" parent="fHbNj_VpwOHKkfFw5XxW-31" connectable="0" vertex="1">
          <mxGeometry x="0.6719" relative="1" as="geometry">
            <mxPoint x="1" y="8" as="offset" />
          </mxGeometry>
        </mxCell>
        <mxCell id="fHbNj_VpwOHKkfFw5XxW-62" value="has" style="edgeLabel;html=1;align=center;verticalAlign=middle;resizable=0;points=[];" parent="fHbNj_VpwOHKkfFw5XxW-31" connectable="0" vertex="1">
          <mxGeometry x="0.0477" y="-2" relative="1" as="geometry">
            <mxPoint y="6" as="offset" />
          </mxGeometry>
        </mxCell>
        <mxCell id="fHbNj_VpwOHKkfFw5XxW-34" style="edgeStyle=orthogonalEdgeStyle;rounded=0;orthogonalLoop=1;jettySize=auto;html=1;entryX=0;entryY=0.5;entryDx=0;entryDy=0;exitX=0.5;exitY=0;exitDx=0;exitDy=0;" parent="1" source="fHbNj_VpwOHKkfFw5XxW-7" target="fHbNj_VpwOHKkfFw5XxW-11" edge="1">
          <mxGeometry relative="1" as="geometry" />
        </mxCell>
        <mxCell id="fHbNj_VpwOHKkfFw5XxW-35" value="1..*" style="edgeLabel;html=1;align=center;verticalAlign=middle;resizable=0;points=[];" parent="fHbNj_VpwOHKkfFw5XxW-34" connectable="0" vertex="1">
          <mxGeometry x="-0.8429" y="1" relative="1" as="geometry">
            <mxPoint x="-10" y="-5" as="offset" />
          </mxGeometry>
        </mxCell>
        <mxCell id="fHbNj_VpwOHKkfFw5XxW-36" value="0..1" style="edgeLabel;html=1;align=center;verticalAlign=middle;resizable=0;points=[];" parent="fHbNj_VpwOHKkfFw5XxW-34" connectable="0" vertex="1">
          <mxGeometry x="0.7753" y="1" relative="1" as="geometry">
            <mxPoint x="-1" y="-11" as="offset" />
          </mxGeometry>
        </mxCell>
        <mxCell id="fHbNj_VpwOHKkfFw5XxW-63" value="is changed by" style="edgeLabel;html=1;align=center;verticalAlign=middle;resizable=0;points=[];" parent="fHbNj_VpwOHKkfFw5XxW-34" connectable="0" vertex="1">
          <mxGeometry x="0.0313" relative="1" as="geometry">
            <mxPoint x="-11" y="-11" as="offset" />
          </mxGeometry>
        </mxCell>
        <mxCell id="fHbNj_VpwOHKkfFw5XxW-7" value="AlarmStatusHistory" style="rounded=1;whiteSpace=wrap;html=1;" parent="1" vertex="1">
          <mxGeometry x="523" y="579" width="125" height="30" as="geometry" />
        </mxCell>
        <mxCell id="fHbNj_VpwOHKkfFw5XxW-8" value="AlarmStatusType" style="rounded=1;whiteSpace=wrap;html=1;" parent="1" vertex="1">
          <mxGeometry x="633" y="625" width="110" height="30" as="geometry" />
        </mxCell>
        <mxCell id="fHbNj_VpwOHKkfFw5XxW-11" value="ApplicationUser" style="rounded=1;whiteSpace=wrap;html=1;" parent="1" vertex="1">
          <mxGeometry x="678" y="529" width="125" height="30" as="geometry" />
        </mxCell>
        <mxCell id="fHbNj_VpwOHKkfFw5XxW-56" style="edgeStyle=orthogonalEdgeStyle;rounded=0;orthogonalLoop=1;jettySize=auto;html=1;exitX=1;exitY=0.5;exitDx=0;exitDy=0;entryX=0;entryY=0.5;entryDx=0;entryDy=0;" parent="1" source="fHbNj_VpwOHKkfFw5XxW-37" target="fHbNj_VpwOHKkfFw5XxW-55" edge="1">
          <mxGeometry relative="1" as="geometry" />
        </mxCell>
        <mxCell id="fHbNj_VpwOHKkfFw5XxW-57" value="1..*" style="edgeLabel;html=1;align=center;verticalAlign=middle;resizable=0;points=[];" parent="fHbNj_VpwOHKkfFw5XxW-56" connectable="0" vertex="1">
          <mxGeometry x="-0.7587" relative="1" as="geometry">
            <mxPoint y="8" as="offset" />
          </mxGeometry>
        </mxCell>
        <mxCell id="fHbNj_VpwOHKkfFw5XxW-58" value="1" style="edgeLabel;html=1;align=center;verticalAlign=middle;resizable=0;points=[];" parent="fHbNj_VpwOHKkfFw5XxW-56" connectable="0" vertex="1">
          <mxGeometry x="0.4073" y="-1" relative="1" as="geometry">
            <mxPoint x="2" y="7" as="offset" />
          </mxGeometry>
        </mxCell>
        <mxCell id="fHbNj_VpwOHKkfFw5XxW-59" value="has" style="edgeLabel;html=1;align=center;verticalAlign=middle;resizable=0;points=[];" parent="fHbNj_VpwOHKkfFw5XxW-56" connectable="0" vertex="1">
          <mxGeometry x="-0.1692" relative="1" as="geometry">
            <mxPoint x="2" y="9" as="offset" />
          </mxGeometry>
        </mxCell>
        <mxCell id="fHbNj_VpwOHKkfFw5XxW-81" style="edgeStyle=orthogonalEdgeStyle;rounded=0;orthogonalLoop=1;jettySize=auto;html=1;exitX=0.5;exitY=1;exitDx=0;exitDy=0;entryX=0.5;entryY=0;entryDx=0;entryDy=0;" parent="1" source="fHbNj_VpwOHKkfFw5XxW-37" target="fHbNj_VpwOHKkfFw5XxW-11" edge="1">
          <mxGeometry relative="1" as="geometry" />
        </mxCell>
        <mxCell id="fHbNj_VpwOHKkfFw5XxW-82" value="1" style="edgeLabel;html=1;align=center;verticalAlign=middle;resizable=0;points=[];" parent="fHbNj_VpwOHKkfFw5XxW-81" connectable="0" vertex="1">
          <mxGeometry x="-0.6804" y="1" relative="1" as="geometry">
            <mxPoint x="6" as="offset" />
          </mxGeometry>
        </mxCell>
        <mxCell id="fHbNj_VpwOHKkfFw5XxW-83" value="1" style="edgeLabel;html=1;align=center;verticalAlign=middle;resizable=0;points=[];" parent="fHbNj_VpwOHKkfFw5XxW-81" connectable="0" vertex="1">
          <mxGeometry x="0.6082" y="2" relative="1" as="geometry">
            <mxPoint x="5" as="offset" />
          </mxGeometry>
        </mxCell>
        <mxCell id="fHbNj_VpwOHKkfFw5XxW-84" value="is changed by" style="edgeLabel;html=1;align=center;verticalAlign=middle;resizable=0;points=[];" parent="fHbNj_VpwOHKkfFw5XxW-81" connectable="0" vertex="1">
          <mxGeometry x="-0.0876" y="1" relative="1" as="geometry">
            <mxPoint x="37" y="1" as="offset" />
          </mxGeometry>
        </mxCell>
        <mxCell id="fHbNj_VpwOHKkfFw5XxW-37" value="SeverityHistory" style="rounded=1;whiteSpace=wrap;html=1;" parent="1" vertex="1">
          <mxGeometry x="693" y="402" width="95" height="30" as="geometry" />
        </mxCell>
        <mxCell id="fHbNj_VpwOHKkfFw5XxW-50" style="edgeStyle=orthogonalEdgeStyle;rounded=0;orthogonalLoop=1;jettySize=auto;html=1;entryX=1;entryY=0.5;entryDx=0;entryDy=0;" parent="1" source="fHbNj_VpwOHKkfFw5XxW-43" target="fHbNj_VpwOHKkfFw5XxW-49" edge="1">
          <mxGeometry relative="1" as="geometry" />
        </mxCell>
        <mxCell id="fHbNj_VpwOHKkfFw5XxW-52" value="has" style="edgeLabel;html=1;align=center;verticalAlign=middle;resizable=0;points=[];" parent="fHbNj_VpwOHKkfFw5XxW-50" connectable="0" vertex="1">
          <mxGeometry x="0.1313" y="1" relative="1" as="geometry">
            <mxPoint x="5" y="-10" as="offset" />
          </mxGeometry>
        </mxCell>
        <mxCell id="fHbNj_VpwOHKkfFw5XxW-53" value="1..*" style="edgeLabel;html=1;align=center;verticalAlign=middle;resizable=0;points=[];" parent="fHbNj_VpwOHKkfFw5XxW-50" connectable="0" vertex="1">
          <mxGeometry x="-0.596" y="-1" relative="1" as="geometry">
            <mxPoint x="2" y="-8" as="offset" />
          </mxGeometry>
        </mxCell>
        <mxCell id="fHbNj_VpwOHKkfFw5XxW-54" value="1" style="edgeLabel;html=1;align=center;verticalAlign=middle;resizable=0;points=[];" parent="fHbNj_VpwOHKkfFw5XxW-50" connectable="0" vertex="1">
          <mxGeometry x="0.4949" y="1" relative="1" as="geometry">
            <mxPoint y="-9" as="offset" />
          </mxGeometry>
        </mxCell>
        <mxCell id="fHbNj_VpwOHKkfFw5XxW-65" style="edgeStyle=orthogonalEdgeStyle;rounded=0;orthogonalLoop=1;jettySize=auto;html=1;entryX=0.5;entryY=1;entryDx=0;entryDy=0;" parent="1" source="fHbNj_VpwOHKkfFw5XxW-43" target="fHbNj_VpwOHKkfFw5XxW-60" edge="1">
          <mxGeometry relative="1" as="geometry" />
        </mxCell>
        <mxCell id="fHbNj_VpwOHKkfFw5XxW-67" value="*" style="edgeLabel;html=1;align=center;verticalAlign=middle;resizable=0;points=[];" parent="fHbNj_VpwOHKkfFw5XxW-65" connectable="0" vertex="1">
          <mxGeometry x="-0.6013" y="-2" relative="1" as="geometry">
            <mxPoint x="3" as="offset" />
          </mxGeometry>
        </mxCell>
        <mxCell id="fHbNj_VpwOHKkfFw5XxW-68" value="1" style="edgeLabel;html=1;align=center;verticalAlign=middle;resizable=0;points=[];" parent="fHbNj_VpwOHKkfFw5XxW-65" connectable="0" vertex="1">
          <mxGeometry x="0.6116" relative="1" as="geometry">
            <mxPoint x="4" y="5" as="offset" />
          </mxGeometry>
        </mxCell>
        <mxCell id="fHbNj_VpwOHKkfFw5XxW-43" value="Norm" style="rounded=1;whiteSpace=wrap;html=1;" parent="1" vertex="1">
          <mxGeometry x="523" y="309" width="80" height="30" as="geometry" />
        </mxCell>
        <mxCell id="fHbNj_VpwOHKkfFw5XxW-49" value="InformationName" style="rounded=1;whiteSpace=wrap;html=1;" parent="1" vertex="1">
          <mxGeometry x="353" y="309" width="100" height="30" as="geometry" />
        </mxCell>
        <mxCell id="fHbNj_VpwOHKkfFw5XxW-55" value="Severity" style="rounded=1;whiteSpace=wrap;html=1;" parent="1" vertex="1">
          <mxGeometry x="863" y="402" width="70" height="30" as="geometry" />
        </mxCell>
        <mxCell id="fHbNj_VpwOHKkfFw5XxW-60" value="Information" style="rounded=1;whiteSpace=wrap;html=1;" parent="1" vertex="1">
          <mxGeometry x="523" y="229" width="80" height="30" as="geometry" />
        </mxCell>
        <mxCell id="fHbNj_VpwOHKkfFw5XxW-76" style="edgeStyle=orthogonalEdgeStyle;rounded=0;orthogonalLoop=1;jettySize=auto;html=1;entryX=0.5;entryY=0;entryDx=0;entryDy=0;endArrow=block;endFill=0;exitX=1;exitY=0.5;exitDx=0;exitDy=0;" parent="1" source="fHbNj_VpwOHKkfFw5XxW-73" target="fHbNj_VpwOHKkfFw5XxW-60" edge="1">
          <mxGeometry relative="1" as="geometry" />
        </mxCell>
        <mxCell id="fHbNj_VpwOHKkfFw5XxW-73" value="Value" style="rounded=1;whiteSpace=wrap;html=1;" parent="1" vertex="1">
          <mxGeometry x="453" y="139" width="80" height="30" as="geometry" />
        </mxCell>
        <mxCell id="fHbNj_VpwOHKkfFw5XxW-75" style="edgeStyle=orthogonalEdgeStyle;rounded=0;orthogonalLoop=1;jettySize=auto;html=1;entryX=0.5;entryY=0;entryDx=0;entryDy=0;endArrow=block;endFill=0;exitX=0;exitY=0.5;exitDx=0;exitDy=0;" parent="1" source="fHbNj_VpwOHKkfFw5XxW-74" target="fHbNj_VpwOHKkfFw5XxW-60" edge="1">
          <mxGeometry relative="1" as="geometry" />
        </mxCell>
        <mxCell id="fHbNj_VpwOHKkfFw5XxW-78" style="edgeStyle=orthogonalEdgeStyle;rounded=0;orthogonalLoop=1;jettySize=auto;html=1;entryX=1;entryY=0.5;entryDx=0;entryDy=0;endArrow=diamond;endFill=0;startArrow=none;startFill=0;exitX=0.5;exitY=1;exitDx=0;exitDy=0;" parent="1" source="fHbNj_VpwOHKkfFw5XxW-74" target="fHbNj_VpwOHKkfFw5XxW-60" edge="1">
          <mxGeometry relative="1" as="geometry" />
        </mxCell>
        <mxCell id="fHbNj_VpwOHKkfFw5XxW-79" value="1" style="edgeLabel;html=1;align=center;verticalAlign=middle;resizable=0;points=[];" parent="fHbNj_VpwOHKkfFw5XxW-78" connectable="0" vertex="1">
          <mxGeometry x="0.8397" y="1" relative="1" as="geometry">
            <mxPoint x="-2" y="13" as="offset" />
          </mxGeometry>
        </mxCell>
        <mxCell id="fHbNj_VpwOHKkfFw5XxW-80" value="0..*" style="edgeLabel;html=1;align=center;verticalAlign=middle;resizable=0;points=[];" parent="fHbNj_VpwOHKkfFw5XxW-78" connectable="0" vertex="1">
          <mxGeometry x="-0.8122" y="1" relative="1" as="geometry">
            <mxPoint x="10" as="offset" />
          </mxGeometry>
        </mxCell>
        <mxCell id="xgmipsqawxmJ2BAelLnw-1" value="has" style="edgeLabel;html=1;align=center;verticalAlign=middle;resizable=0;points=[];" parent="fHbNj_VpwOHKkfFw5XxW-78" connectable="0" vertex="1">
          <mxGeometry x="-0.2174" y="2" relative="1" as="geometry">
            <mxPoint x="8" as="offset" />
          </mxGeometry>
        </mxCell>
        <mxCell id="fHbNj_VpwOHKkfFw5XxW-74" value="Component" style="rounded=1;whiteSpace=wrap;html=1;" parent="1" vertex="1">
          <mxGeometry x="603" y="139" width="80" height="30" as="geometry" />
        </mxCell>
        <mxCell id="fHbNj_VpwOHKkfFw5XxW-89" value="&lt;font style=&quot;font-size: 36px;&quot;&gt;WebApp: Analysis Class Diagram&lt;/font&gt;" style="text;html=1;align=center;verticalAlign=middle;resizable=0;points=[];autosize=1;strokeColor=none;fillColor=none;" parent="1" vertex="1">
          <mxGeometry x="302.5" y="30" width="560" height="60" as="geometry" />
        </mxCell>
      </root>
    </mxGraphModel>
  </diagram>
  <diagram id="z57NlUPOqcXFwF2buiWp" name="Class Diagram With Attributes">
    <mxGraphModel dx="1600" dy="11" grid="1" gridSize="10" guides="1" tooltips="1" connect="1" arrows="1" fold="1" page="1" pageScale="1" pageWidth="1169" pageHeight="827" math="0" shadow="0">
      <root>
        <mxCell id="0" />
        <mxCell id="1" parent="0" />
        <mxCell id="_OQaEzN6hf5HTndJ7Xha-1" style="edgeStyle=orthogonalEdgeStyle;rounded=0;orthogonalLoop=1;jettySize=auto;html=1;entryX=0.5;entryY=0;entryDx=0;entryDy=0;" parent="1" edge="1">
          <mxGeometry relative="1" as="geometry">
            <mxPoint x="586" y="1338" as="sourcePoint" />
            <mxPoint x="586" y="1398" as="targetPoint" />
          </mxGeometry>
        </mxCell>
        <mxCell id="_OQaEzN6hf5HTndJ7Xha-2" value="&lt;font style=&quot;font-size: 12px;&quot;&gt;1&lt;/font&gt;" style="edgeLabel;html=1;align=center;verticalAlign=middle;resizable=0;points=[];" parent="_OQaEzN6hf5HTndJ7Xha-1" vertex="1" connectable="0">
          <mxGeometry x="-0.7" y="2" relative="1" as="geometry">
            <mxPoint x="5" as="offset" />
          </mxGeometry>
        </mxCell>
        <mxCell id="_OQaEzN6hf5HTndJ7Xha-3" value="&lt;font style=&quot;font-size: 12px;&quot;&gt;1..*&lt;/font&gt;" style="edgeLabel;html=1;align=center;verticalAlign=middle;resizable=0;points=[];" parent="_OQaEzN6hf5HTndJ7Xha-1" vertex="1" connectable="0">
          <mxGeometry x="0.4" y="1" relative="1" as="geometry">
            <mxPoint x="11" as="offset" />
          </mxGeometry>
        </mxCell>
        <mxCell id="_OQaEzN6hf5HTndJ7Xha-4" value="&lt;font style=&quot;font-size: 12px;&quot;&gt;has&lt;/font&gt;" style="edgeLabel;html=1;align=center;verticalAlign=middle;resizable=0;points=[];" parent="_OQaEzN6hf5HTndJ7Xha-1" vertex="1" connectable="0">
          <mxGeometry x="-0.1667" relative="1" as="geometry">
            <mxPoint x="-16" as="offset" />
          </mxGeometry>
        </mxCell>
        <mxCell id="_OQaEzN6hf5HTndJ7Xha-5" style="edgeStyle=orthogonalEdgeStyle;rounded=0;orthogonalLoop=1;jettySize=auto;html=1;entryX=1;entryY=0.5;entryDx=0;entryDy=0;exitX=0;exitY=0.75;exitDx=0;exitDy=0;endArrow=none;endFill=0;" parent="1" source="_OQaEzN6hf5HTndJ7Xha-9" target="_OQaEzN6hf5HTndJ7Xha-50" edge="1">
          <mxGeometry relative="1" as="geometry" />
        </mxCell>
        <mxCell id="_OQaEzN6hf5HTndJ7Xha-6" value="&lt;font style=&quot;font-size: 12px;&quot;&gt;1&lt;/font&gt;" style="edgeLabel;html=1;align=center;verticalAlign=middle;resizable=0;points=[];" parent="_OQaEzN6hf5HTndJ7Xha-5" vertex="1" connectable="0">
          <mxGeometry x="0.8814" y="1" relative="1" as="geometry">
            <mxPoint y="-10" as="offset" />
          </mxGeometry>
        </mxCell>
        <mxCell id="_OQaEzN6hf5HTndJ7Xha-7" value="0..*" style="edgeLabel;html=1;align=center;verticalAlign=middle;resizable=0;points=[];fontSize=12;" parent="_OQaEzN6hf5HTndJ7Xha-5" vertex="1" connectable="0">
          <mxGeometry x="-0.7962" y="-1" relative="1" as="geometry">
            <mxPoint x="4" y="-10" as="offset" />
          </mxGeometry>
        </mxCell>
        <mxCell id="_OQaEzN6hf5HTndJ7Xha-8" value="has" style="edgeLabel;html=1;align=center;verticalAlign=middle;resizable=0;points=[];fontSize=12;" parent="_OQaEzN6hf5HTndJ7Xha-5" vertex="1" connectable="0">
          <mxGeometry x="0.1449" y="-3" relative="1" as="geometry">
            <mxPoint x="10" as="offset" />
          </mxGeometry>
        </mxCell>
        <mxCell id="_OQaEzN6hf5HTndJ7Xha-9" value="&lt;font style=&quot;font-size: 14px;&quot;&gt;&lt;b&gt;Alarm&lt;/b&gt;&lt;/font&gt;" style="swimlane;fontStyle=0;childLayout=stackLayout;horizontal=1;startSize=30;horizontalStack=0;resizeParent=1;resizeParentMax=0;resizeLast=0;collapsible=1;marginBottom=0;whiteSpace=wrap;html=1;fontSize=13;" parent="1" vertex="1">
          <mxGeometry x="509" y="1288" width="150" height="50" as="geometry" />
        </mxCell>
        <mxCell id="_OQaEzN6hf5HTndJ7Xha-10" value="TriggeredAt : DateTime" style="text;strokeColor=none;fillColor=none;align=left;verticalAlign=middle;spacingLeft=4;spacingRight=4;overflow=hidden;points=[[0,0.5],[1,0.5]];portConstraint=eastwest;rotatable=0;whiteSpace=wrap;html=1;fontSize=13;" parent="_OQaEzN6hf5HTndJ7Xha-9" vertex="1">
          <mxGeometry y="30" width="150" height="20" as="geometry" />
        </mxCell>
        <mxCell id="_OQaEzN6hf5HTndJ7Xha-11" style="edgeStyle=orthogonalEdgeStyle;rounded=0;orthogonalLoop=1;jettySize=auto;html=1;exitX=1;exitY=0.25;exitDx=0;exitDy=0;entryX=0;entryY=0.25;entryDx=0;entryDy=0;" parent="1" source="_OQaEzN6hf5HTndJ7Xha-15" target="_OQaEzN6hf5HTndJ7Xha-17" edge="1">
          <mxGeometry relative="1" as="geometry" />
        </mxCell>
        <mxCell id="_OQaEzN6hf5HTndJ7Xha-12" value="&lt;font style=&quot;font-size: 12px;&quot;&gt;1..*&lt;/font&gt;" style="edgeLabel;html=1;align=center;verticalAlign=middle;resizable=0;points=[];" parent="_OQaEzN6hf5HTndJ7Xha-11" vertex="1" connectable="0">
          <mxGeometry x="-0.7778" y="-3" relative="1" as="geometry">
            <mxPoint y="6" as="offset" />
          </mxGeometry>
        </mxCell>
        <mxCell id="_OQaEzN6hf5HTndJ7Xha-13" value="&lt;font style=&quot;font-size: 12px;&quot;&gt;1&lt;/font&gt;" style="edgeLabel;html=1;align=center;verticalAlign=middle;resizable=0;points=[];" parent="_OQaEzN6hf5HTndJ7Xha-11" vertex="1" connectable="0">
          <mxGeometry x="0.6923" y="3" relative="1" as="geometry">
            <mxPoint y="12" as="offset" />
          </mxGeometry>
        </mxCell>
        <mxCell id="_OQaEzN6hf5HTndJ7Xha-14" value="&lt;font style=&quot;font-size: 12px;&quot;&gt;has&lt;/font&gt;" style="edgeLabel;html=1;align=center;verticalAlign=middle;resizable=0;points=[];" parent="_OQaEzN6hf5HTndJ7Xha-11" vertex="1" connectable="0">
          <mxGeometry x="0.0684" y="1" relative="1" as="geometry">
            <mxPoint x="-8" y="11" as="offset" />
          </mxGeometry>
        </mxCell>
        <mxCell id="_OQaEzN6hf5HTndJ7Xha-15" value="&lt;font style=&quot;font-size: 14px;&quot;&gt;&lt;b&gt;AlarmStatusHistory&lt;/b&gt;&lt;/font&gt;" style="swimlane;fontStyle=0;childLayout=stackLayout;horizontal=1;startSize=30;horizontalStack=0;resizeParent=1;resizeParentMax=0;resizeLast=0;collapsible=1;marginBottom=0;whiteSpace=wrap;html=1;fontSize=13;" parent="1" vertex="1">
          <mxGeometry x="501" y="1398" width="170" height="50" as="geometry" />
        </mxCell>
        <mxCell id="_OQaEzN6hf5HTndJ7Xha-16" value="ModificationDate: DateTime" style="text;strokeColor=none;fillColor=none;align=left;verticalAlign=middle;spacingLeft=4;spacingRight=4;overflow=hidden;points=[[0,0.5],[1,0.5]];portConstraint=eastwest;rotatable=0;whiteSpace=wrap;html=1;fontSize=13;" parent="_OQaEzN6hf5HTndJ7Xha-15" vertex="1">
          <mxGeometry y="30" width="170" height="20" as="geometry" />
        </mxCell>
        <mxCell id="_OQaEzN6hf5HTndJ7Xha-17" value="&lt;font style=&quot;font-size: 14px;&quot;&gt;&lt;b&gt;AlarmStatusType&lt;/b&gt;&lt;/font&gt;" style="swimlane;fontStyle=0;childLayout=stackLayout;horizontal=1;startSize=30;horizontalStack=0;resizeParent=1;resizeParentMax=0;resizeLast=0;collapsible=1;marginBottom=0;whiteSpace=wrap;html=1;fontSize=13;" parent="1" vertex="1">
          <mxGeometry x="779" y="1393" width="130" height="70" as="geometry" />
        </mxCell>
        <mxCell id="_OQaEzN6hf5HTndJ7Xha-18" value="Name: string" style="text;strokeColor=none;fillColor=none;align=left;verticalAlign=middle;spacingLeft=4;spacingRight=4;overflow=hidden;points=[[0,0.5],[1,0.5]];portConstraint=eastwest;rotatable=0;whiteSpace=wrap;html=1;fontSize=13;" parent="_OQaEzN6hf5HTndJ7Xha-17" vertex="1">
          <mxGeometry y="30" width="130" height="20" as="geometry" />
        </mxCell>
        <mxCell id="_OQaEzN6hf5HTndJ7Xha-19" value="Description: string" style="text;strokeColor=none;fillColor=none;align=left;verticalAlign=middle;spacingLeft=4;spacingRight=4;overflow=hidden;points=[[0,0.5],[1,0.5]];portConstraint=eastwest;rotatable=0;whiteSpace=wrap;html=1;fontSize=13;" parent="_OQaEzN6hf5HTndJ7Xha-17" vertex="1">
          <mxGeometry y="50" width="130" height="20" as="geometry" />
        </mxCell>
        <mxCell id="_OQaEzN6hf5HTndJ7Xha-20" value="&lt;font style=&quot;font-size: 14px;&quot;&gt;&lt;b&gt;ApplicationUser&lt;/b&gt;&lt;/font&gt;" style="swimlane;fontStyle=0;childLayout=stackLayout;horizontal=1;startSize=30;horizontalStack=0;resizeParent=1;resizeParentMax=0;resizeLast=0;collapsible=1;marginBottom=0;whiteSpace=wrap;html=1;fontSize=13;" parent="1" vertex="1">
          <mxGeometry x="918" y="1478" width="140" height="130" as="geometry" />
        </mxCell>
        <mxCell id="_OQaEzN6hf5HTndJ7Xha-21" value="FirstName: string" style="text;strokeColor=none;fillColor=none;align=left;verticalAlign=middle;spacingLeft=4;spacingRight=4;overflow=hidden;points=[[0,0.5],[1,0.5]];portConstraint=eastwest;rotatable=0;whiteSpace=wrap;html=1;fontSize=13;" parent="_OQaEzN6hf5HTndJ7Xha-20" vertex="1">
          <mxGeometry y="30" width="140" height="20" as="geometry" />
        </mxCell>
        <mxCell id="_OQaEzN6hf5HTndJ7Xha-22" value="LastName : string" style="text;strokeColor=none;fillColor=none;align=left;verticalAlign=middle;spacingLeft=4;spacingRight=4;overflow=hidden;points=[[0,0.5],[1,0.5]];portConstraint=eastwest;rotatable=0;whiteSpace=wrap;html=1;fontSize=13;" parent="_OQaEzN6hf5HTndJ7Xha-20" vertex="1">
          <mxGeometry y="50" width="140" height="20" as="geometry" />
        </mxCell>
        <mxCell id="_OQaEzN6hf5HTndJ7Xha-23" value="StartDate: LocalDate" style="text;strokeColor=none;fillColor=none;align=left;verticalAlign=middle;spacingLeft=4;spacingRight=4;overflow=hidden;points=[[0,0.5],[1,0.5]];portConstraint=eastwest;rotatable=0;whiteSpace=wrap;html=1;fontSize=13;" parent="_OQaEzN6hf5HTndJ7Xha-20" vertex="1">
          <mxGeometry y="70" width="140" height="20" as="geometry" />
        </mxCell>
        <mxCell id="_OQaEzN6hf5HTndJ7Xha-24" value="EndDate: LocalDate" style="text;strokeColor=none;fillColor=none;align=left;verticalAlign=middle;spacingLeft=4;spacingRight=4;overflow=hidden;points=[[0,0.5],[1,0.5]];portConstraint=eastwest;rotatable=0;whiteSpace=wrap;html=1;fontSize=13;" parent="_OQaEzN6hf5HTndJ7Xha-20" vertex="1">
          <mxGeometry y="90" width="140" height="20" as="geometry" />
        </mxCell>
        <mxCell id="_OQaEzN6hf5HTndJ7Xha-25" value="IsActivate: bool" style="text;strokeColor=none;fillColor=none;align=left;verticalAlign=middle;spacingLeft=4;spacingRight=4;overflow=hidden;points=[[0,0.5],[1,0.5]];portConstraint=eastwest;rotatable=0;whiteSpace=wrap;html=1;fontSize=13;" parent="_OQaEzN6hf5HTndJ7Xha-20" vertex="1">
          <mxGeometry y="110" width="140" height="20" as="geometry" />
        </mxCell>
        <mxCell id="_OQaEzN6hf5HTndJ7Xha-26" style="edgeStyle=orthogonalEdgeStyle;rounded=0;orthogonalLoop=1;jettySize=auto;html=1;entryX=0.5;entryY=0;entryDx=0;entryDy=0;endArrow=none;endFill=0;" parent="1" source="_OQaEzN6hf5HTndJ7Xha-27" target="_OQaEzN6hf5HTndJ7Xha-105" edge="1">
          <mxGeometry relative="1" as="geometry" />
        </mxCell>
        <mxCell id="_OQaEzN6hf5HTndJ7Xha-27" value="&lt;font style=&quot;font-size: 14px;&quot;&gt;&lt;b&gt;Component&lt;/b&gt;&lt;/font&gt;" style="swimlane;fontStyle=0;childLayout=stackLayout;horizontal=1;startSize=30;horizontalStack=0;resizeParent=1;resizeParentMax=0;resizeLast=0;collapsible=1;marginBottom=0;whiteSpace=wrap;html=1;fontSize=13;" parent="1" vertex="1">
          <mxGeometry x="111" y="914" width="90" height="30" as="geometry" />
        </mxCell>
        <mxCell id="_OQaEzN6hf5HTndJ7Xha-28" style="edgeStyle=orthogonalEdgeStyle;rounded=0;orthogonalLoop=1;jettySize=auto;html=1;exitX=0.5;exitY=0;exitDx=0;exitDy=0;entryX=1;entryY=0.25;entryDx=0;entryDy=0;endArrow=none;endFill=0;startArrow=diamondThin;startFill=0;jumpSize=9;endSize=7;startSize=13;" parent="1" source="_OQaEzN6hf5HTndJ7Xha-36" target="_OQaEzN6hf5HTndJ7Xha-27" edge="1">
          <mxGeometry relative="1" as="geometry" />
        </mxCell>
        <mxCell id="_OQaEzN6hf5HTndJ7Xha-29" value="&lt;font style=&quot;font-size: 12px;&quot;&gt;0..*&lt;/font&gt;" style="edgeLabel;html=1;align=center;verticalAlign=middle;resizable=0;points=[];" parent="_OQaEzN6hf5HTndJ7Xha-28" vertex="1" connectable="0">
          <mxGeometry x="0.7667" relative="1" as="geometry">
            <mxPoint x="-3" y="-9" as="offset" />
          </mxGeometry>
        </mxCell>
        <mxCell id="_OQaEzN6hf5HTndJ7Xha-30" value="&lt;font style=&quot;font-size: 12px;&quot;&gt;1&lt;/font&gt;" style="edgeLabel;html=1;align=center;verticalAlign=middle;resizable=0;points=[];" parent="_OQaEzN6hf5HTndJ7Xha-28" vertex="1" connectable="0">
          <mxGeometry x="-0.5208" y="3" relative="1" as="geometry">
            <mxPoint x="6" y="-12" as="offset" />
          </mxGeometry>
        </mxCell>
        <mxCell id="_OQaEzN6hf5HTndJ7Xha-31" value="&lt;font style=&quot;font-size: 12px;&quot;&gt;has&lt;/font&gt;" style="edgeLabel;html=1;align=center;verticalAlign=middle;resizable=0;points=[];" parent="_OQaEzN6hf5HTndJ7Xha-28" vertex="1" connectable="0">
          <mxGeometry x="0.3333" y="2" relative="1" as="geometry">
            <mxPoint x="15" y="-11" as="offset" />
          </mxGeometry>
        </mxCell>
        <mxCell id="_OQaEzN6hf5HTndJ7Xha-32" style="edgeStyle=orthogonalEdgeStyle;rounded=0;orthogonalLoop=1;jettySize=auto;html=1;entryX=0.5;entryY=0;entryDx=0;entryDy=0;endArrow=none;endFill=0;" parent="1" target="_OQaEzN6hf5HTndJ7Xha-46" edge="1">
          <mxGeometry relative="1" as="geometry">
            <mxPoint x="281" y="1045.9999999999998" as="sourcePoint" />
            <mxPoint x="281" y="1156.0000000000002" as="targetPoint" />
          </mxGeometry>
        </mxCell>
        <mxCell id="_OQaEzN6hf5HTndJ7Xha-33" value="&lt;font style=&quot;font-size: 12px;&quot;&gt;has&lt;/font&gt;" style="edgeLabel;html=1;align=center;verticalAlign=middle;resizable=0;points=[];" parent="_OQaEzN6hf5HTndJ7Xha-32" vertex="1" connectable="0">
          <mxGeometry x="-0.0409" y="1" relative="1" as="geometry">
            <mxPoint x="-16" as="offset" />
          </mxGeometry>
        </mxCell>
        <mxCell id="_OQaEzN6hf5HTndJ7Xha-34" value="*" style="edgeLabel;html=1;align=center;verticalAlign=middle;resizable=0;points=[];fontSize=12;" parent="_OQaEzN6hf5HTndJ7Xha-32" vertex="1" connectable="0">
          <mxGeometry x="-0.7682" relative="1" as="geometry">
            <mxPoint x="-7" as="offset" />
          </mxGeometry>
        </mxCell>
        <mxCell id="_OQaEzN6hf5HTndJ7Xha-35" value="&lt;font style=&quot;font-size: 12px;&quot;&gt;1&lt;/font&gt;" style="edgeLabel;html=1;align=center;verticalAlign=middle;resizable=0;points=[];" parent="_OQaEzN6hf5HTndJ7Xha-32" vertex="1" connectable="0">
          <mxGeometry x="0.6182" y="-2" relative="1" as="geometry">
            <mxPoint x="-6" as="offset" />
          </mxGeometry>
        </mxCell>
        <mxCell id="_OQaEzN6hf5HTndJ7Xha-36" value="&lt;b&gt;&lt;font style=&quot;font-size: 14px;&quot;&gt;Information&lt;/font&gt;&lt;/b&gt;" style="swimlane;fontStyle=0;childLayout=stackLayout;horizontal=1;startSize=30;horizontalStack=0;resizeParent=1;resizeParentMax=0;resizeLast=0;collapsible=1;marginBottom=0;whiteSpace=wrap;html=1;fontSize=13;" parent="1" vertex="1">
          <mxGeometry x="226" y="956" width="110" height="90" as="geometry" />
        </mxCell>
        <mxCell id="_OQaEzN6hf5HTndJ7Xha-37" value="Name : string" style="text;strokeColor=none;fillColor=none;align=left;verticalAlign=middle;spacingLeft=4;spacingRight=4;overflow=hidden;points=[[0,0.5],[1,0.5]];portConstraint=eastwest;rotatable=0;whiteSpace=wrap;html=1;fontSize=13;" parent="_OQaEzN6hf5HTndJ7Xha-36" vertex="1">
          <mxGeometry y="30" width="110" height="20" as="geometry" />
        </mxCell>
        <mxCell id="_OQaEzN6hf5HTndJ7Xha-38" value="Value : string" style="text;strokeColor=none;fillColor=none;align=left;verticalAlign=middle;spacingLeft=4;spacingRight=4;overflow=hidden;points=[[0,0.5],[1,0.5]];portConstraint=eastwest;rotatable=0;whiteSpace=wrap;html=1;fontSize=13;" parent="_OQaEzN6hf5HTndJ7Xha-36" vertex="1">
          <mxGeometry y="50" width="110" height="20" as="geometry" />
        </mxCell>
        <mxCell id="_OQaEzN6hf5HTndJ7Xha-39" value="Format : string" style="text;strokeColor=none;fillColor=none;align=left;verticalAlign=middle;spacingLeft=4;spacingRight=4;overflow=hidden;points=[[0,0.5],[1,0.5]];portConstraint=eastwest;rotatable=0;whiteSpace=wrap;html=1;fontSize=13;" parent="_OQaEzN6hf5HTndJ7Xha-36" vertex="1">
          <mxGeometry y="70" width="110" height="20" as="geometry" />
        </mxCell>
        <mxCell id="_OQaEzN6hf5HTndJ7Xha-40" value="&lt;font style=&quot;font-size: 14px;&quot;&gt;&lt;b&gt;InformationName&lt;/b&gt;&lt;/font&gt;" style="swimlane;fontStyle=0;childLayout=stackLayout;horizontal=1;startSize=30;horizontalStack=0;resizeParent=1;resizeParentMax=0;resizeLast=0;collapsible=1;marginBottom=0;whiteSpace=wrap;html=1;fontSize=13;" parent="1" vertex="1">
          <mxGeometry x="711" y="946" width="130" height="50" as="geometry" />
        </mxCell>
        <mxCell id="_OQaEzN6hf5HTndJ7Xha-41" value="Name : string" style="text;strokeColor=none;fillColor=none;align=left;verticalAlign=middle;spacingLeft=4;spacingRight=4;overflow=hidden;points=[[0,0.5],[1,0.5]];portConstraint=eastwest;rotatable=0;whiteSpace=wrap;html=1;fontSize=13;" parent="_OQaEzN6hf5HTndJ7Xha-40" vertex="1">
          <mxGeometry y="30" width="130" height="20" as="geometry" />
        </mxCell>
        <mxCell id="_OQaEzN6hf5HTndJ7Xha-42" style="edgeStyle=orthogonalEdgeStyle;rounded=0;orthogonalLoop=1;jettySize=auto;html=1;exitX=0.5;exitY=1;exitDx=0;exitDy=0;entryX=0.5;entryY=0;entryDx=0;entryDy=0;endArrow=none;endFill=0;" parent="1" source="_OQaEzN6hf5HTndJ7Xha-46" target="_OQaEzN6hf5HTndJ7Xha-81" edge="1">
          <mxGeometry relative="1" as="geometry" />
        </mxCell>
        <mxCell id="_OQaEzN6hf5HTndJ7Xha-43" value="&lt;font style=&quot;font-size: 12px;&quot;&gt;is written on&lt;br&gt;&lt;/font&gt;" style="edgeLabel;html=1;align=center;verticalAlign=middle;resizable=0;points=[];" parent="_OQaEzN6hf5HTndJ7Xha-42" vertex="1" connectable="0">
          <mxGeometry x="-0.045" y="-2" relative="1" as="geometry">
            <mxPoint x="-36" as="offset" />
          </mxGeometry>
        </mxCell>
        <mxCell id="_OQaEzN6hf5HTndJ7Xha-44" value="&lt;font style=&quot;font-size: 12px;&quot;&gt;1&lt;/font&gt;" style="edgeLabel;html=1;align=center;verticalAlign=middle;resizable=0;points=[];" parent="_OQaEzN6hf5HTndJ7Xha-42" vertex="1" connectable="0">
          <mxGeometry x="-0.62" y="1" relative="1" as="geometry">
            <mxPoint x="-11" as="offset" />
          </mxGeometry>
        </mxCell>
        <mxCell id="_OQaEzN6hf5HTndJ7Xha-45" value="&lt;font style=&quot;font-size: 12px;&quot;&gt;0..&lt;font&gt;*&lt;/font&gt;&lt;/font&gt;" style="edgeLabel;html=1;align=center;verticalAlign=middle;resizable=0;points=[];" parent="_OQaEzN6hf5HTndJ7Xha-42" vertex="1" connectable="0">
          <mxGeometry x="0.655" y="4" relative="1" as="geometry">
            <mxPoint x="-17" as="offset" />
          </mxGeometry>
        </mxCell>
        <mxCell id="_OQaEzN6hf5HTndJ7Xha-46" value="&lt;font style=&quot;font-size: 14px;&quot;&gt;&lt;b&gt;Machine&lt;/b&gt;&lt;/font&gt;" style="swimlane;fontStyle=0;childLayout=stackLayout;horizontal=1;startSize=30;horizontalStack=0;resizeParent=1;resizeParentMax=0;resizeLast=0;collapsible=1;marginBottom=0;whiteSpace=wrap;html=1;fontSize=13;" parent="1" vertex="1">
          <mxGeometry x="206" y="1175" width="150" height="110" as="geometry" />
        </mxCell>
        <mxCell id="_OQaEzN6hf5HTndJ7Xha-47" value="Name : string" style="text;strokeColor=none;fillColor=none;align=left;verticalAlign=middle;spacingLeft=4;spacingRight=4;overflow=hidden;points=[[0,0.5],[1,0.5]];portConstraint=eastwest;rotatable=0;whiteSpace=wrap;html=1;fontSize=13;" parent="_OQaEzN6hf5HTndJ7Xha-46" vertex="1">
          <mxGeometry y="30" width="150" height="20" as="geometry" />
        </mxCell>
        <mxCell id="_OQaEzN6hf5HTndJ7Xha-48" value="Model : string" style="text;strokeColor=none;fillColor=none;align=left;verticalAlign=middle;spacingLeft=4;spacingRight=4;overflow=hidden;points=[[0,0.5],[1,0.5]];portConstraint=eastwest;rotatable=0;whiteSpace=wrap;html=1;fontSize=13;" parent="_OQaEzN6hf5HTndJ7Xha-46" vertex="1">
          <mxGeometry y="50" width="150" height="20" as="geometry" />
        </mxCell>
        <mxCell id="_OQaEzN6hf5HTndJ7Xha-49" value="LastSeen : DateTime" style="text;strokeColor=none;fillColor=none;align=left;verticalAlign=middle;spacingLeft=4;spacingRight=4;overflow=hidden;points=[[0,0.5],[1,0.5]];portConstraint=eastwest;rotatable=0;whiteSpace=wrap;html=1;fontSize=13;" parent="_OQaEzN6hf5HTndJ7Xha-46" vertex="1">
          <mxGeometry y="70" width="150" height="20" as="geometry" />
        </mxCell>
        <mxCell id="_OQaEzN6hf5HTndJ7Xha-50" value="IsWorking : bool" style="text;strokeColor=none;fillColor=none;align=left;verticalAlign=middle;spacingLeft=4;spacingRight=4;overflow=hidden;points=[[0,0.5],[1,0.5]];portConstraint=eastwest;rotatable=0;whiteSpace=wrap;html=1;fontSize=13;" parent="_OQaEzN6hf5HTndJ7Xha-46" vertex="1">
          <mxGeometry y="90" width="150" height="20" as="geometry" />
        </mxCell>
        <mxCell id="_OQaEzN6hf5HTndJ7Xha-51" style="edgeStyle=orthogonalEdgeStyle;rounded=0;orthogonalLoop=1;jettySize=auto;html=1;entryX=0.5;entryY=0;entryDx=0;entryDy=0;endArrow=none;endFill=0;" parent="1" source="_OQaEzN6hf5HTndJ7Xha-59" target="_OQaEzN6hf5HTndJ7Xha-72" edge="1">
          <mxGeometry relative="1" as="geometry" />
        </mxCell>
        <mxCell id="_OQaEzN6hf5HTndJ7Xha-52" value="&lt;font style=&quot;font-size: 12px;&quot;&gt;1..*&lt;/font&gt;" style="edgeLabel;html=1;align=center;verticalAlign=middle;resizable=0;points=[];" parent="_OQaEzN6hf5HTndJ7Xha-51" vertex="1" connectable="0">
          <mxGeometry x="-0.665" y="-1" relative="1" as="geometry">
            <mxPoint x="-14" as="offset" />
          </mxGeometry>
        </mxCell>
        <mxCell id="_OQaEzN6hf5HTndJ7Xha-53" value="&lt;font style=&quot;font-size: 12px;&quot;&gt;composed of&lt;br&gt;&lt;/font&gt;" style="edgeLabel;html=1;align=center;verticalAlign=middle;resizable=0;points=[];" parent="_OQaEzN6hf5HTndJ7Xha-51" vertex="1" connectable="0">
          <mxGeometry x="-0.0825" y="-3" relative="1" as="geometry">
            <mxPoint x="-40" as="offset" />
          </mxGeometry>
        </mxCell>
        <mxCell id="_OQaEzN6hf5HTndJ7Xha-54" value="&lt;font style=&quot;font-size: 12px;&quot;&gt;1&lt;/font&gt;" style="edgeLabel;html=1;align=center;verticalAlign=middle;resizable=0;points=[];" parent="_OQaEzN6hf5HTndJ7Xha-51" vertex="1" connectable="0">
          <mxGeometry x="0.568" y="-1" relative="1" as="geometry">
            <mxPoint x="-11" as="offset" />
          </mxGeometry>
        </mxCell>
        <mxCell id="_OQaEzN6hf5HTndJ7Xha-55" style="edgeStyle=orthogonalEdgeStyle;rounded=0;orthogonalLoop=1;jettySize=auto;html=1;exitX=1;exitY=0.25;exitDx=0;exitDy=0;entryX=0;entryY=0.5;entryDx=0;entryDy=0;" parent="1" source="_OQaEzN6hf5HTndJ7Xha-59" target="_OQaEzN6hf5HTndJ7Xha-40" edge="1">
          <mxGeometry relative="1" as="geometry" />
        </mxCell>
        <mxCell id="_OQaEzN6hf5HTndJ7Xha-56" value="&lt;font style=&quot;font-size: 12px;&quot;&gt;1..*&lt;/font&gt;" style="edgeLabel;html=1;align=center;verticalAlign=middle;resizable=0;points=[];" parent="_OQaEzN6hf5HTndJ7Xha-55" vertex="1" connectable="0">
          <mxGeometry x="-0.669" y="-2" relative="1" as="geometry">
            <mxPoint x="-1" y="-12" as="offset" />
          </mxGeometry>
        </mxCell>
        <mxCell id="_OQaEzN6hf5HTndJ7Xha-57" value="1" style="edgeLabel;html=1;align=center;verticalAlign=middle;resizable=0;points=[];" parent="_OQaEzN6hf5HTndJ7Xha-55" vertex="1" connectable="0">
          <mxGeometry x="0.5172" y="-3" relative="1" as="geometry">
            <mxPoint y="-14" as="offset" />
          </mxGeometry>
        </mxCell>
        <mxCell id="_OQaEzN6hf5HTndJ7Xha-58" value="&lt;font style=&quot;font-size: 12px;&quot;&gt;has&lt;/font&gt;" style="edgeLabel;html=1;align=center;verticalAlign=middle;resizable=0;points=[];" parent="_OQaEzN6hf5HTndJ7Xha-55" vertex="1" connectable="0">
          <mxGeometry x="0.1379" relative="1" as="geometry">
            <mxPoint x="-6" y="8" as="offset" />
          </mxGeometry>
        </mxCell>
        <mxCell id="_OQaEzN6hf5HTndJ7Xha-59" value="&lt;font style=&quot;font-size: 14px;&quot;&gt;&lt;b&gt;Norm&lt;/b&gt;&lt;/font&gt;" style="swimlane;fontStyle=0;childLayout=stackLayout;horizontal=1;startSize=30;horizontalStack=0;resizeParent=1;resizeParentMax=0;resizeLast=0;collapsible=1;marginBottom=0;whiteSpace=wrap;html=1;fontSize=13;" parent="1" vertex="1">
          <mxGeometry x="529" y="944" width="110" height="110" as="geometry" />
        </mxCell>
        <mxCell id="_OQaEzN6hf5HTndJ7Xha-60" value="Name : string" style="text;strokeColor=none;fillColor=none;align=left;verticalAlign=middle;spacingLeft=4;spacingRight=4;overflow=hidden;points=[[0,0.5],[1,0.5]];portConstraint=eastwest;rotatable=0;whiteSpace=wrap;html=1;fontSize=13;" parent="_OQaEzN6hf5HTndJ7Xha-59" vertex="1">
          <mxGeometry y="30" width="110" height="20" as="geometry" />
        </mxCell>
        <mxCell id="_OQaEzN6hf5HTndJ7Xha-61" value="Condition : string" style="text;strokeColor=none;fillColor=none;align=left;verticalAlign=middle;spacingLeft=4;spacingRight=4;overflow=hidden;points=[[0,0.5],[1,0.5]];portConstraint=eastwest;rotatable=0;whiteSpace=wrap;html=1;fontSize=13;" parent="_OQaEzN6hf5HTndJ7Xha-59" vertex="1">
          <mxGeometry y="50" width="110" height="20" as="geometry" />
        </mxCell>
        <mxCell id="_OQaEzN6hf5HTndJ7Xha-62" value="Format : string" style="text;strokeColor=none;fillColor=none;align=left;verticalAlign=middle;spacingLeft=4;spacingRight=4;overflow=hidden;points=[[0,0.5],[1,0.5]];portConstraint=eastwest;rotatable=0;whiteSpace=wrap;html=1;fontSize=13;" parent="_OQaEzN6hf5HTndJ7Xha-59" vertex="1">
          <mxGeometry y="70" width="110" height="20" as="geometry" />
        </mxCell>
        <mxCell id="_OQaEzN6hf5HTndJ7Xha-63" value="Value : string" style="text;strokeColor=none;fillColor=none;align=left;verticalAlign=middle;spacingLeft=4;spacingRight=4;overflow=hidden;points=[[0,0.5],[1,0.5]];portConstraint=eastwest;rotatable=0;whiteSpace=wrap;html=1;fontSize=13;" parent="_OQaEzN6hf5HTndJ7Xha-59" vertex="1">
          <mxGeometry y="90" width="110" height="20" as="geometry" />
        </mxCell>
        <mxCell id="_OQaEzN6hf5HTndJ7Xha-64" style="edgeStyle=orthogonalEdgeStyle;rounded=0;orthogonalLoop=1;jettySize=auto;html=1;exitX=1;exitY=0.25;exitDx=0;exitDy=0;entryX=0;entryY=0.5;entryDx=0;entryDy=0;endArrow=none;endFill=0;" parent="1" source="_OQaEzN6hf5HTndJ7Xha-72" target="_OQaEzN6hf5HTndJ7Xha-102" edge="1">
          <mxGeometry relative="1" as="geometry" />
        </mxCell>
        <mxCell id="_OQaEzN6hf5HTndJ7Xha-65" value="&lt;font style=&quot;font-size: 12px;&quot;&gt;1&lt;/font&gt;" style="edgeLabel;html=1;align=center;verticalAlign=middle;resizable=0;points=[];" parent="_OQaEzN6hf5HTndJ7Xha-64" vertex="1" connectable="0">
          <mxGeometry x="-0.736" y="-3" relative="1" as="geometry">
            <mxPoint y="8" as="offset" />
          </mxGeometry>
        </mxCell>
        <mxCell id="_OQaEzN6hf5HTndJ7Xha-66" value="&lt;font style=&quot;font-size: 12px;&quot;&gt;1..*&lt;/font&gt;" style="edgeLabel;html=1;align=center;verticalAlign=middle;resizable=0;points=[];" parent="_OQaEzN6hf5HTndJ7Xha-64" vertex="1" connectable="0">
          <mxGeometry x="0.6701" y="1" relative="1" as="geometry">
            <mxPoint y="11" as="offset" />
          </mxGeometry>
        </mxCell>
        <mxCell id="_OQaEzN6hf5HTndJ7Xha-67" value="&lt;font style=&quot;font-size: 12px;&quot;&gt;has&lt;/font&gt;" style="edgeLabel;html=1;align=center;verticalAlign=middle;resizable=0;points=[];" parent="_OQaEzN6hf5HTndJ7Xha-64" vertex="1" connectable="0">
          <mxGeometry x="-0.1523" y="-4" relative="1" as="geometry">
            <mxPoint x="7" y="6" as="offset" />
          </mxGeometry>
        </mxCell>
        <mxCell id="_OQaEzN6hf5HTndJ7Xha-68" style="edgeStyle=orthogonalEdgeStyle;rounded=0;orthogonalLoop=1;jettySize=auto;html=1;entryX=0.5;entryY=0;entryDx=0;entryDy=0;endArrow=diamondThin;endFill=1;endSize=10;" parent="1" source="_OQaEzN6hf5HTndJ7Xha-72" target="_OQaEzN6hf5HTndJ7Xha-9" edge="1">
          <mxGeometry relative="1" as="geometry" />
        </mxCell>
        <mxCell id="_OQaEzN6hf5HTndJ7Xha-69" value="&lt;font style=&quot;font-size: 12px;&quot;&gt;1..*&lt;/font&gt;" style="edgeLabel;html=1;align=center;verticalAlign=middle;resizable=0;points=[];" parent="_OQaEzN6hf5HTndJ7Xha-68" vertex="1" connectable="0">
          <mxGeometry x="0.2857" relative="1" as="geometry">
            <mxPoint x="11" as="offset" />
          </mxGeometry>
        </mxCell>
        <mxCell id="_OQaEzN6hf5HTndJ7Xha-70" value="&lt;font style=&quot;font-size: 12px;&quot;&gt;1&lt;/font&gt;" style="edgeLabel;html=1;align=center;verticalAlign=middle;resizable=0;points=[];" parent="_OQaEzN6hf5HTndJ7Xha-68" vertex="1" connectable="0">
          <mxGeometry x="-0.6" y="-1" relative="1" as="geometry">
            <mxPoint x="7" as="offset" />
          </mxGeometry>
        </mxCell>
        <mxCell id="_OQaEzN6hf5HTndJ7Xha-71" value="&lt;font&gt;contains&lt;/font&gt;" style="edgeLabel;html=1;align=center;verticalAlign=middle;resizable=0;points=[];fontSize=12;" parent="_OQaEzN6hf5HTndJ7Xha-68" vertex="1" connectable="0">
          <mxGeometry x="-0.2571" y="-1" relative="1" as="geometry">
            <mxPoint x="-28" y="1" as="offset" />
          </mxGeometry>
        </mxCell>
        <mxCell id="_OQaEzN6hf5HTndJ7Xha-72" value="&lt;font style=&quot;font-size: 14px;&quot;&gt;&lt;b&gt;NormGroup&lt;/b&gt;&lt;/font&gt;" style="swimlane;fontStyle=0;childLayout=stackLayout;horizontal=1;startSize=30;horizontalStack=0;resizeParent=1;resizeParentMax=0;resizeLast=0;collapsible=1;marginBottom=0;whiteSpace=wrap;html=1;fontSize=13;" parent="1" vertex="1">
          <mxGeometry x="454" y="1113" width="260" height="110" as="geometry" />
        </mxCell>
        <mxCell id="_OQaEzN6hf5HTndJ7Xha-73" value="Name : string" style="text;strokeColor=none;fillColor=none;align=left;verticalAlign=middle;spacingLeft=4;spacingRight=4;overflow=hidden;points=[[0,0.5],[1,0.5]];portConstraint=eastwest;rotatable=0;whiteSpace=wrap;html=1;fontSize=13;" parent="_OQaEzN6hf5HTndJ7Xha-72" vertex="1">
          <mxGeometry y="30" width="260" height="20" as="geometry" />
        </mxCell>
        <mxCell id="_OQaEzN6hf5HTndJ7Xha-74" value="Priority : int" style="text;strokeColor=none;fillColor=none;align=left;verticalAlign=middle;spacingLeft=4;spacingRight=4;overflow=hidden;points=[[0,0.5],[1,0.5]];portConstraint=eastwest;rotatable=0;whiteSpace=wrap;html=1;fontSize=13;" parent="_OQaEzN6hf5HTndJ7Xha-72" vertex="1">
          <mxGeometry y="50" width="260" height="20" as="geometry" />
        </mxCell>
        <mxCell id="_OQaEzN6hf5HTndJ7Xha-75" value="MaxExpectedProcessingTime : TimeSpan" style="text;strokeColor=none;fillColor=none;align=left;verticalAlign=middle;spacingLeft=4;spacingRight=4;overflow=hidden;points=[[0,0.5],[1,0.5]];portConstraint=eastwest;rotatable=0;whiteSpace=wrap;html=1;fontSize=13;" parent="_OQaEzN6hf5HTndJ7Xha-72" vertex="1">
          <mxGeometry y="70" width="260" height="20" as="geometry" />
        </mxCell>
        <mxCell id="_OQaEzN6hf5HTndJ7Xha-76" value="IsEnable : bool" style="text;strokeColor=none;fillColor=none;align=left;verticalAlign=middle;spacingLeft=4;spacingRight=4;overflow=hidden;points=[[0,0.5],[1,0.5]];portConstraint=eastwest;rotatable=0;whiteSpace=wrap;html=1;fontSize=13;" parent="_OQaEzN6hf5HTndJ7Xha-72" vertex="1">
          <mxGeometry y="90" width="260" height="20" as="geometry" />
        </mxCell>
        <mxCell id="_OQaEzN6hf5HTndJ7Xha-77" style="edgeStyle=orthogonalEdgeStyle;rounded=0;orthogonalLoop=1;jettySize=auto;html=1;entryX=0.5;entryY=0;entryDx=0;entryDy=0;endArrow=none;endFill=0;" parent="1" source="_OQaEzN6hf5HTndJ7Xha-81" target="_OQaEzN6hf5HTndJ7Xha-86" edge="1">
          <mxGeometry relative="1" as="geometry" />
        </mxCell>
        <mxCell id="_OQaEzN6hf5HTndJ7Xha-78" value="&lt;font style=&quot;font-size: 12px;&quot;&gt;1&lt;/font&gt;" style="edgeLabel;html=1;align=center;verticalAlign=middle;resizable=0;points=[];" parent="_OQaEzN6hf5HTndJ7Xha-77" vertex="1" connectable="0">
          <mxGeometry x="-0.525" y="1" relative="1" as="geometry">
            <mxPoint x="-8" as="offset" />
          </mxGeometry>
        </mxCell>
        <mxCell id="_OQaEzN6hf5HTndJ7Xha-79" value="&lt;font style=&quot;font-size: 12px;&quot;&gt;is linked to&lt;br&gt;&lt;/font&gt;" style="edgeLabel;html=1;align=center;verticalAlign=middle;resizable=0;points=[];" parent="_OQaEzN6hf5HTndJ7Xha-77" vertex="1" connectable="0">
          <mxGeometry x="0.1" y="-1" relative="1" as="geometry">
            <mxPoint x="-36" as="offset" />
          </mxGeometry>
        </mxCell>
        <mxCell id="_OQaEzN6hf5HTndJ7Xha-80" value="&lt;font style=&quot;font-size: 12px;&quot;&gt;0..*&lt;/font&gt;" style="edgeLabel;html=1;align=center;verticalAlign=middle;resizable=0;points=[];" parent="_OQaEzN6hf5HTndJ7Xha-77" vertex="1" connectable="0">
          <mxGeometry x="0.6312" relative="1" as="geometry">
            <mxPoint x="-12" as="offset" />
          </mxGeometry>
        </mxCell>
        <mxCell id="_OQaEzN6hf5HTndJ7Xha-81" value="&lt;font style=&quot;font-size: 14px;&quot;&gt;&lt;b&gt;Note&lt;/b&gt;&lt;/font&gt;" style="swimlane;fontStyle=0;childLayout=stackLayout;horizontal=1;startSize=30;horizontalStack=0;resizeParent=1;resizeParentMax=0;resizeLast=0;collapsible=1;marginBottom=0;whiteSpace=wrap;html=1;fontSize=13;" parent="1" vertex="1">
          <mxGeometry x="211" y="1366" width="140" height="110" as="geometry" />
        </mxCell>
        <mxCell id="_OQaEzN6hf5HTndJ7Xha-82" value="Title : string" style="text;strokeColor=none;fillColor=none;align=left;verticalAlign=middle;spacingLeft=4;spacingRight=4;overflow=hidden;points=[[0,0.5],[1,0.5]];portConstraint=eastwest;rotatable=0;whiteSpace=wrap;html=1;fontSize=13;" parent="_OQaEzN6hf5HTndJ7Xha-81" vertex="1">
          <mxGeometry y="30" width="140" height="20" as="geometry" />
        </mxCell>
        <mxCell id="_OQaEzN6hf5HTndJ7Xha-83" value="Content : string" style="text;strokeColor=none;fillColor=none;align=left;verticalAlign=middle;spacingLeft=4;spacingRight=4;overflow=hidden;points=[[0,0.5],[1,0.5]];portConstraint=eastwest;rotatable=0;whiteSpace=wrap;html=1;fontSize=13;" parent="_OQaEzN6hf5HTndJ7Xha-81" vertex="1">
          <mxGeometry y="50" width="140" height="20" as="geometry" />
        </mxCell>
        <mxCell id="_OQaEzN6hf5HTndJ7Xha-84" value="CreatedAt : DateTime" style="text;strokeColor=none;fillColor=none;align=left;verticalAlign=middle;spacingLeft=4;spacingRight=4;overflow=hidden;points=[[0,0.5],[1,0.5]];portConstraint=eastwest;rotatable=0;whiteSpace=wrap;html=1;fontSize=13;" parent="_OQaEzN6hf5HTndJ7Xha-81" vertex="1">
          <mxGeometry y="70" width="140" height="20" as="geometry" />
        </mxCell>
        <mxCell id="_OQaEzN6hf5HTndJ7Xha-85" value="IsSolution : bool" style="text;strokeColor=none;fillColor=none;align=left;verticalAlign=middle;spacingLeft=4;spacingRight=4;overflow=hidden;points=[[0,0.5],[1,0.5]];portConstraint=eastwest;rotatable=0;whiteSpace=wrap;html=1;fontSize=13;" parent="_OQaEzN6hf5HTndJ7Xha-81" vertex="1">
          <mxGeometry y="90" width="140" height="20" as="geometry" />
        </mxCell>
        <mxCell id="_OQaEzN6hf5HTndJ7Xha-86" value="&lt;font style=&quot;font-size: 14px;&quot;&gt;&lt;b&gt;File&lt;/b&gt;&lt;/font&gt;" style="swimlane;fontStyle=0;childLayout=stackLayout;horizontal=1;startSize=30;horizontalStack=0;resizeParent=1;resizeParentMax=0;resizeLast=0;collapsible=1;marginBottom=0;whiteSpace=wrap;html=1;fontSize=13;" parent="1" vertex="1">
          <mxGeometry x="211" y="1535" width="140" height="110" as="geometry" />
        </mxCell>
        <mxCell id="_OQaEzN6hf5HTndJ7Xha-87" value="Filename : string" style="text;strokeColor=none;fillColor=none;align=left;verticalAlign=middle;spacingLeft=4;spacingRight=4;overflow=hidden;points=[[0,0.5],[1,0.5]];portConstraint=eastwest;rotatable=0;whiteSpace=wrap;html=1;fontSize=13;" parent="_OQaEzN6hf5HTndJ7Xha-86" vertex="1">
          <mxGeometry y="30" width="140" height="20" as="geometry" />
        </mxCell>
        <mxCell id="_OQaEzN6hf5HTndJ7Xha-88" value="FileContent : string" style="text;strokeColor=none;fillColor=none;align=left;verticalAlign=middle;spacingLeft=4;spacingRight=4;overflow=hidden;points=[[0,0.5],[1,0.5]];portConstraint=eastwest;rotatable=0;whiteSpace=wrap;html=1;fontSize=13;" parent="_OQaEzN6hf5HTndJ7Xha-86" vertex="1">
          <mxGeometry y="50" width="140" height="20" as="geometry" />
        </mxCell>
        <mxCell id="_OQaEzN6hf5HTndJ7Xha-89" value="MimeType : string" style="text;strokeColor=none;fillColor=none;align=left;verticalAlign=middle;spacingLeft=4;spacingRight=4;overflow=hidden;points=[[0,0.5],[1,0.5]];portConstraint=eastwest;rotatable=0;whiteSpace=wrap;html=1;fontSize=13;" parent="_OQaEzN6hf5HTndJ7Xha-86" vertex="1">
          <mxGeometry y="70" width="140" height="20" as="geometry" />
        </mxCell>
        <mxCell id="_OQaEzN6hf5HTndJ7Xha-90" value="IsTemporary : bool" style="text;strokeColor=none;fillColor=none;align=left;verticalAlign=middle;spacingLeft=4;spacingRight=4;overflow=hidden;points=[[0,0.5],[1,0.5]];portConstraint=eastwest;rotatable=0;whiteSpace=wrap;html=1;fontSize=13;" parent="_OQaEzN6hf5HTndJ7Xha-86" vertex="1">
          <mxGeometry y="90" width="140" height="20" as="geometry" />
        </mxCell>
        <mxCell id="_OQaEzN6hf5HTndJ7Xha-91" value="&lt;font style=&quot;font-size: 14px;&quot;&gt;&lt;b&gt;Severity&lt;/b&gt;&lt;/font&gt;" style="swimlane;fontStyle=0;childLayout=stackLayout;horizontal=1;startSize=30;horizontalStack=0;resizeParent=1;resizeParentMax=0;resizeLast=0;collapsible=1;marginBottom=0;whiteSpace=wrap;html=1;fontSize=13;" parent="1" vertex="1">
          <mxGeometry x="820" y="1229" width="140" height="70" as="geometry" />
        </mxCell>
        <mxCell id="_OQaEzN6hf5HTndJ7Xha-92" value="Name : string" style="text;strokeColor=none;fillColor=none;align=left;verticalAlign=middle;spacingLeft=4;spacingRight=4;overflow=hidden;points=[[0,0.5],[1,0.5]];portConstraint=eastwest;rotatable=0;whiteSpace=wrap;html=1;fontSize=13;" parent="_OQaEzN6hf5HTndJ7Xha-91" vertex="1">
          <mxGeometry y="30" width="140" height="20" as="geometry" />
        </mxCell>
        <mxCell id="_OQaEzN6hf5HTndJ7Xha-93" value="Description : string" style="text;strokeColor=none;fillColor=none;align=left;verticalAlign=middle;spacingLeft=4;spacingRight=4;overflow=hidden;points=[[0,0.5],[1,0.5]];portConstraint=eastwest;rotatable=0;whiteSpace=wrap;html=1;fontSize=13;" parent="_OQaEzN6hf5HTndJ7Xha-91" vertex="1">
          <mxGeometry y="50" width="140" height="20" as="geometry" />
        </mxCell>
        <mxCell id="_OQaEzN6hf5HTndJ7Xha-94" style="edgeStyle=orthogonalEdgeStyle;rounded=0;orthogonalLoop=1;jettySize=auto;html=1;entryX=0.5;entryY=0;entryDx=0;entryDy=0;endArrow=classic;endFill=1;" parent="1" source="_OQaEzN6hf5HTndJ7Xha-102" target="_OQaEzN6hf5HTndJ7Xha-91" edge="1">
          <mxGeometry relative="1" as="geometry" />
        </mxCell>
        <mxCell id="_OQaEzN6hf5HTndJ7Xha-95" value="&lt;font style=&quot;font-size: 12px;&quot;&gt;1..*&lt;/font&gt;" style="edgeLabel;html=1;align=center;verticalAlign=middle;resizable=0;points=[];" parent="_OQaEzN6hf5HTndJ7Xha-94" vertex="1" connectable="0">
          <mxGeometry x="-0.7273" y="1" relative="1" as="geometry">
            <mxPoint x="11" y="-1" as="offset" />
          </mxGeometry>
        </mxCell>
        <mxCell id="_OQaEzN6hf5HTndJ7Xha-96" value="&lt;font style=&quot;font-size: 12px;&quot;&gt;1&lt;/font&gt;" style="edgeLabel;html=1;align=center;verticalAlign=middle;resizable=0;points=[];" parent="_OQaEzN6hf5HTndJ7Xha-94" vertex="1" connectable="0">
          <mxGeometry x="0.5227" relative="1" as="geometry">
            <mxPoint x="11" y="-1" as="offset" />
          </mxGeometry>
        </mxCell>
        <mxCell id="_OQaEzN6hf5HTndJ7Xha-97" value="&lt;font style=&quot;font-size: 12px;&quot;&gt;has&lt;/font&gt;" style="edgeLabel;html=1;align=center;verticalAlign=middle;resizable=0;points=[];" parent="_OQaEzN6hf5HTndJ7Xha-94" vertex="1" connectable="0">
          <mxGeometry x="-0.1591" relative="1" as="geometry">
            <mxPoint x="13" y="-1" as="offset" />
          </mxGeometry>
        </mxCell>
        <mxCell id="_OQaEzN6hf5HTndJ7Xha-98" style="edgeStyle=orthogonalEdgeStyle;rounded=0;orthogonalLoop=1;jettySize=auto;html=1;exitX=1;exitY=0.5;exitDx=0;exitDy=0;entryX=0.5;entryY=0;entryDx=0;entryDy=0;" parent="1" source="_OQaEzN6hf5HTndJ7Xha-102" target="_OQaEzN6hf5HTndJ7Xha-20" edge="1">
          <mxGeometry relative="1" as="geometry" />
        </mxCell>
        <mxCell id="_OQaEzN6hf5HTndJ7Xha-99" value="1" style="edgeLabel;html=1;align=center;verticalAlign=middle;resizable=0;points=[];fontSize=12;" parent="_OQaEzN6hf5HTndJ7Xha-98" vertex="1" connectable="0">
          <mxGeometry x="-0.9105" y="-1" relative="1" as="geometry">
            <mxPoint y="-12" as="offset" />
          </mxGeometry>
        </mxCell>
        <mxCell id="_OQaEzN6hf5HTndJ7Xha-100" value="1" style="edgeLabel;html=1;align=center;verticalAlign=middle;resizable=0;points=[];" parent="_OQaEzN6hf5HTndJ7Xha-98" vertex="1" connectable="0">
          <mxGeometry x="0.9023" y="1" relative="1" as="geometry">
            <mxPoint x="9" as="offset" />
          </mxGeometry>
        </mxCell>
        <mxCell id="_OQaEzN6hf5HTndJ7Xha-101" value="&lt;font style=&quot;font-size: 12px;&quot;&gt;is changed by&lt;br&gt;&lt;/font&gt;" style="edgeLabel;html=1;align=center;verticalAlign=middle;resizable=0;points=[];" parent="_OQaEzN6hf5HTndJ7Xha-98" vertex="1" connectable="0">
          <mxGeometry x="0.0535" relative="1" as="geometry">
            <mxPoint x="41" as="offset" />
          </mxGeometry>
        </mxCell>
        <mxCell id="_OQaEzN6hf5HTndJ7Xha-102" value="&lt;b&gt;&lt;font style=&quot;font-size: 14px;&quot;&gt;Severity&lt;/font&gt;History&lt;/b&gt;" style="swimlane;fontStyle=0;childLayout=stackLayout;horizontal=1;startSize=30;horizontalStack=0;resizeParent=1;resizeParentMax=0;resizeLast=0;collapsible=1;marginBottom=0;whiteSpace=wrap;html=1;fontSize=13;" parent="1" vertex="1">
          <mxGeometry x="815" y="1115" width="150" height="50" as="geometry" />
        </mxCell>
        <mxCell id="_OQaEzN6hf5HTndJ7Xha-103" value="UpdateDate : DateTime" style="text;strokeColor=none;fillColor=none;align=left;verticalAlign=middle;spacingLeft=4;spacingRight=4;overflow=hidden;points=[[0,0.5],[1,0.5]];portConstraint=eastwest;rotatable=0;whiteSpace=wrap;html=1;fontSize=13;" parent="_OQaEzN6hf5HTndJ7Xha-102" vertex="1">
          <mxGeometry y="30" width="150" height="20" as="geometry" />
        </mxCell>
        <mxCell id="_OQaEzN6hf5HTndJ7Xha-104" style="edgeStyle=orthogonalEdgeStyle;rounded=0;orthogonalLoop=1;jettySize=auto;html=1;entryX=0;entryY=0.5;entryDx=0;entryDy=0;endArrow=block;endFill=0;endSize=9;" parent="1" source="_OQaEzN6hf5HTndJ7Xha-105" target="_OQaEzN6hf5HTndJ7Xha-37" edge="1">
          <mxGeometry relative="1" as="geometry" />
        </mxCell>
        <mxCell id="_OQaEzN6hf5HTndJ7Xha-105" value="&lt;font style=&quot;font-size: 14px;&quot;&gt;&lt;b&gt;Value&lt;/b&gt;&lt;/font&gt;" style="swimlane;fontStyle=0;childLayout=stackLayout;horizontal=1;startSize=30;horizontalStack=0;resizeParent=1;resizeParentMax=0;resizeLast=0;collapsible=1;marginBottom=0;whiteSpace=wrap;html=1;fontSize=13;" parent="1" vertex="1">
          <mxGeometry x="121" y="1036" width="70" height="30" as="geometry" />
        </mxCell>
        <mxCell id="_OQaEzN6hf5HTndJ7Xha-106" style="edgeStyle=orthogonalEdgeStyle;rounded=0;orthogonalLoop=1;jettySize=auto;html=1;entryX=0.989;entryY=0.169;entryDx=0;entryDy=0;entryPerimeter=0;exitX=0;exitY=0.25;exitDx=0;exitDy=0;" parent="1" source="_OQaEzN6hf5HTndJ7Xha-59" target="_OQaEzN6hf5HTndJ7Xha-36" edge="1">
          <mxGeometry relative="1" as="geometry" />
        </mxCell>
        <mxCell id="_OQaEzN6hf5HTndJ7Xha-107" value="concerns" style="edgeLabel;html=1;align=center;verticalAlign=middle;resizable=0;points=[];" parent="_OQaEzN6hf5HTndJ7Xha-106" vertex="1" connectable="0">
          <mxGeometry x="-0.1546" y="1" relative="1" as="geometry">
            <mxPoint x="-3" y="-10" as="offset" />
          </mxGeometry>
        </mxCell>
        <mxCell id="_OQaEzN6hf5HTndJ7Xha-108" value="&lt;font style=&quot;font-size: 12px;&quot;&gt;0..*&lt;/font&gt;" style="edgeLabel;html=1;align=center;verticalAlign=middle;resizable=0;points=[];" parent="_OQaEzN6hf5HTndJ7Xha-106" vertex="1" connectable="0">
          <mxGeometry x="-0.6947" y="1" relative="1" as="geometry">
            <mxPoint y="8" as="offset" />
          </mxGeometry>
        </mxCell>
        <mxCell id="_OQaEzN6hf5HTndJ7Xha-109" value="&lt;font style=&quot;font-size: 12px;&quot;&gt;1&lt;/font&gt;" style="edgeLabel;html=1;align=center;verticalAlign=middle;resizable=0;points=[];" parent="_OQaEzN6hf5HTndJ7Xha-106" vertex="1" connectable="0">
          <mxGeometry x="0.5902" y="-2" relative="1" as="geometry">
            <mxPoint y="11" as="offset" />
          </mxGeometry>
        </mxCell>
        <mxCell id="_OQaEzN6hf5HTndJ7Xha-110" style="edgeStyle=orthogonalEdgeStyle;rounded=0;orthogonalLoop=1;jettySize=auto;html=1;entryX=0;entryY=0.25;entryDx=0;entryDy=0;exitX=0.5;exitY=1;exitDx=0;exitDy=0;" parent="1" source="_OQaEzN6hf5HTndJ7Xha-15" target="_OQaEzN6hf5HTndJ7Xha-20" edge="1">
          <mxGeometry relative="1" as="geometry" />
        </mxCell>
        <mxCell id="_OQaEzN6hf5HTndJ7Xha-111" value="1..*" style="edgeLabel;html=1;align=center;verticalAlign=middle;resizable=0;points=[];fontSize=12;" parent="_OQaEzN6hf5HTndJ7Xha-110" vertex="1" connectable="0">
          <mxGeometry x="-0.9365" y="4" relative="1" as="geometry">
            <mxPoint x="7" as="offset" />
          </mxGeometry>
        </mxCell>
        <mxCell id="_OQaEzN6hf5HTndJ7Xha-112" value="&lt;font style=&quot;font-size: 12px;&quot;&gt;0..1&lt;/font&gt;" style="edgeLabel;html=1;align=center;verticalAlign=middle;resizable=0;points=[];" parent="_OQaEzN6hf5HTndJ7Xha-110" vertex="1" connectable="0">
          <mxGeometry x="0.8779" y="-1" relative="1" as="geometry">
            <mxPoint y="-12" as="offset" />
          </mxGeometry>
        </mxCell>
        <mxCell id="_OQaEzN6hf5HTndJ7Xha-113" value="&lt;font style=&quot;font-size: 12px;&quot;&gt;is changed by&lt;br&gt;&lt;/font&gt;" style="edgeLabel;html=1;align=center;verticalAlign=middle;resizable=0;points=[];" parent="_OQaEzN6hf5HTndJ7Xha-110" vertex="1" connectable="0">
          <mxGeometry x="0.0085" y="-1" relative="1" as="geometry">
            <mxPoint x="1" y="-11" as="offset" />
          </mxGeometry>
        </mxCell>
        <mxCell id="_OQaEzN6hf5HTndJ7Xha-114" style="edgeStyle=orthogonalEdgeStyle;rounded=0;orthogonalLoop=1;jettySize=auto;html=1;exitX=1;exitY=0.5;exitDx=0;exitDy=0;entryX=0;entryY=0.5;entryDx=0;entryDy=0;" parent="1" source="_OQaEzN6hf5HTndJ7Xha-85" target="_OQaEzN6hf5HTndJ7Xha-23" edge="1">
          <mxGeometry relative="1" as="geometry">
            <Array as="points">
              <mxPoint x="471" y="1466" />
              <mxPoint x="471" y="1558" />
            </Array>
          </mxGeometry>
        </mxCell>
        <mxCell id="_OQaEzN6hf5HTndJ7Xha-115" value="&lt;font style=&quot;font-size: 12px;&quot;&gt;0..*&lt;/font&gt;" style="edgeLabel;html=1;align=center;verticalAlign=middle;resizable=0;points=[];" parent="_OQaEzN6hf5HTndJ7Xha-114" vertex="1" connectable="0">
          <mxGeometry x="-0.9485" y="-2" relative="1" as="geometry">
            <mxPoint y="8" as="offset" />
          </mxGeometry>
        </mxCell>
        <mxCell id="_OQaEzN6hf5HTndJ7Xha-116" value="&lt;font style=&quot;font-size: 12px;&quot;&gt;0..*&lt;/font&gt;" style="edgeLabel;html=1;align=center;verticalAlign=middle;resizable=0;points=[];" parent="_OQaEzN6hf5HTndJ7Xha-114" vertex="1" connectable="0">
          <mxGeometry x="0.8879" relative="1" as="geometry">
            <mxPoint y="9" as="offset" />
          </mxGeometry>
        </mxCell>
        <mxCell id="_OQaEzN6hf5HTndJ7Xha-117" value="&lt;font style=&quot;font-size: 12px;&quot;&gt;is written by&lt;br&gt;&lt;/font&gt;" style="edgeLabel;html=1;align=center;verticalAlign=middle;resizable=0;points=[];" parent="_OQaEzN6hf5HTndJ7Xha-114" vertex="1" connectable="0">
          <mxGeometry x="-0.1121" y="3" relative="1" as="geometry">
            <mxPoint y="-7" as="offset" />
          </mxGeometry>
        </mxCell>
        <mxCell id="_OQaEzN6hf5HTndJ7Xha-118" value="&lt;font style=&quot;font-size: 32px;&quot;&gt;WebApp: Analysis Class Diagram With Attributes&lt;br&gt;&lt;/font&gt;" style="text;html=1;align=center;verticalAlign=middle;resizable=0;points=[];autosize=1;strokeColor=none;fillColor=none;" parent="1" vertex="1">
          <mxGeometry x="226" y="840" width="720" height="50" as="geometry" />
        </mxCell>
      </root>
    </mxGraphModel>
  </diagram>
</mxfile>
